<svg width="33" height="31" viewBox="0 0 33 31" fill="none" xmlns="http://www.w3.org/2000/svg">
<path d="M23.4443 26.195C22.0968 27.4221 20.6256 27.2283 19.2093 26.6471C17.7106 26.0529 16.3356 26.0271 14.7543 26.6471C12.7743 27.4479 11.7293 27.2154 10.5468 26.195C3.83684 19.6979 4.82684 9.80375 12.4443 9.44208C14.3006 9.5325 15.5931 10.3979 16.6793 10.4754C18.3018 10.1654 19.8556 9.27417 21.5881 9.39042C23.6643 9.54542 25.2318 10.3204 26.2631 11.7154C21.9731 14.1308 22.9906 19.4396 26.9231 20.925C26.1393 22.8625 25.1218 24.7871 23.4306 26.2079L23.4443 26.195ZM16.5418 9.36458C16.3356 6.48417 18.8243 4.1075 21.6843 3.875C22.0831 7.2075 18.4668 9.6875 16.5418 9.36458Z" fill="white"/>
</svg>
