<svg width="148" height="52" viewBox="0 0 148 52" fill="none" xmlns="http://www.w3.org/2000/svg">
<path d="M10.5948 49.9464C10.4502 49.9464 10.3244 49.8935 10.2175 49.7877C10.1106 49.6819 10.0572 49.5574 10.0572 49.4143V43.6642C10.0572 43.5211 10.1106 43.3966 10.2175 43.2908C10.3244 43.185 10.4502 43.1321 10.5948 43.1321H13.8296C13.9742 43.1321 14.0999 43.185 14.2068 43.2908C14.3137 43.3966 14.3671 43.5211 14.3671 43.6642V43.8789C14.3671 44.022 14.3137 44.1465 14.2068 44.2523C14.0999 44.3581 13.9742 44.411 13.8296 44.411H11.7453C11.6887 44.411 11.6605 44.4359 11.6605 44.4856V45.8765C11.6605 45.9325 11.6887 45.9605 11.7453 45.9605H13.6409C13.7855 45.9605 13.9113 46.0134 14.0182 46.1192C14.1251 46.2188 14.1785 46.3401 14.1785 46.4832V46.6326C14.1785 46.7757 14.1251 46.9002 14.0182 47.006C13.9113 47.1056 13.7855 47.1553 13.6409 47.1553H11.7453C11.6887 47.1553 11.6605 47.1833 11.6605 47.2394V49.4143C11.6605 49.5574 11.607 49.6819 11.5001 49.7877C11.3995 49.8935 11.2769 49.9464 11.1323 49.9464H10.5948Z" fill="white"/>
<path d="M16.3358 49.9464C16.1912 49.9464 16.0655 49.8935 15.9586 49.7877C15.8517 49.6819 15.7983 49.5574 15.7983 49.4143V45.6245C15.7983 45.4813 15.8517 45.3569 15.9586 45.2511C16.0655 45.1453 16.1912 45.0924 16.3358 45.0924H16.864C17.0086 45.0924 17.1343 45.1453 17.2412 45.2511C17.3481 45.3569 17.4015 45.4813 17.4015 45.6245V49.4143C17.4015 49.5574 17.3481 49.6819 17.2412 49.7877C17.1343 49.8935 17.0086 49.9464 16.864 49.9464H16.3358ZM16.3358 44.1589C16.1912 44.1589 16.0655 44.106 15.9586 44.0002C15.8517 43.8944 15.7983 43.77 15.7983 43.6269V43.4775C15.7983 43.3344 15.8517 43.2099 15.9586 43.1041C16.0655 42.9983 16.1912 42.9454 16.3358 42.9454H16.864C17.0086 42.9454 17.1343 42.9983 17.2412 43.1041C17.3481 43.2099 17.4015 43.3344 17.4015 43.4775V43.6269C17.4015 43.77 17.3481 43.8944 17.2412 44.0002C17.1343 44.106 17.0086 44.1589 16.864 44.1589H16.3358Z" fill="white"/>
<path d="M19.4062 49.9464C19.2616 49.9464 19.1358 49.8935 19.0289 49.7877C18.9283 49.6819 18.878 49.5574 18.878 49.4143V45.6245C18.878 45.4813 18.9283 45.3569 19.0289 45.2511C19.1358 45.1453 19.2616 45.0924 19.4062 45.0924H19.7928C19.9437 45.0924 20.0695 45.1453 20.1701 45.2511C20.277 45.3506 20.3335 45.4751 20.3398 45.6245L20.3493 45.6991C20.3493 45.7054 20.3524 45.7085 20.3587 45.7085L20.3775 45.6898C20.7862 45.2293 21.2766 44.999 21.8488 44.999C22.4209 44.999 22.8327 45.1608 23.0842 45.4844C23.3357 45.8018 23.4615 46.3463 23.4615 47.118V49.4143C23.4615 49.5574 23.408 49.6819 23.3011 49.7877C23.2005 49.8935 23.0779 49.9464 22.9333 49.9464H22.5184C22.3738 49.9464 22.248 49.8935 22.1411 49.7877C22.0342 49.6819 21.9808 49.5574 21.9808 49.4143V47.1647C21.9808 46.7913 21.9305 46.5361 21.8299 46.3992C21.7293 46.2561 21.547 46.1845 21.2829 46.1845C21.0629 46.1845 20.8585 46.2748 20.6699 46.4552C20.4876 46.6295 20.3964 46.8193 20.3964 47.0247V49.4143C20.3964 49.5574 20.343 49.6819 20.2361 49.7877C20.1355 49.8935 20.0129 49.9464 19.8683 49.9464H19.4062Z" fill="white"/>
<path d="M26.8121 46.1192C26.1833 46.1192 25.869 46.5859 25.869 47.5194C25.869 47.9923 25.9539 48.3439 26.1236 48.5742C26.2934 48.8045 26.5229 48.9196 26.8121 48.9196C27.0636 48.9196 27.2836 48.8356 27.4722 48.6675C27.6609 48.4995 27.7552 48.3097 27.7552 48.0981V46.9406C27.7552 46.7291 27.6609 46.5393 27.4722 46.3712C27.2836 46.2032 27.0636 46.1192 26.8121 46.1192ZM26.2934 50.0397C25.7338 50.0397 25.2748 49.8188 24.9165 49.377C24.5581 48.9289 24.3789 48.3097 24.3789 47.5194C24.3789 46.7104 24.5518 46.0881 24.8976 45.6525C25.2434 45.2169 25.7087 44.999 26.2934 44.999C26.8089 44.999 27.2773 45.1888 27.6986 45.5685C27.7049 45.5747 27.7111 45.5778 27.7174 45.5778C27.7237 45.5778 27.7269 45.5747 27.7269 45.5685V43.4775C27.7269 43.3344 27.7772 43.2099 27.8778 43.1041C27.9846 42.9983 28.1104 42.9454 28.255 42.9454H28.7171C28.8617 42.9454 28.9843 42.9983 29.0849 43.1041C29.1918 43.2099 29.2452 43.3344 29.2452 43.4775V49.4143C29.2452 49.5574 29.1918 49.6819 29.0849 49.7877C28.9843 49.8935 28.8617 49.9464 28.7171 49.9464H28.3587C28.2078 49.9464 28.079 49.8966 27.9721 49.797C27.8715 49.6912 27.818 49.5637 27.8117 49.4143V49.3396C27.8117 49.3334 27.8086 49.3303 27.8023 49.3303L27.7835 49.349C27.3874 49.8095 26.8907 50.0397 26.2934 50.0397Z" fill="white"/>
<path d="M34.5931 49.8717L32.9993 45.5871C32.949 45.4689 32.9616 45.3569 33.0371 45.2511C33.1125 45.1453 33.2162 45.0924 33.3483 45.0924H33.9424C34.0933 45.0924 34.2316 45.1422 34.3574 45.2417C34.4831 45.3351 34.5649 45.4564 34.6026 45.6058L35.3193 48.5089C35.3193 48.5151 35.3225 48.5182 35.3288 48.5182C35.335 48.5182 35.3382 48.5151 35.3382 48.5089L36.1964 45.5965C36.2341 45.4471 36.3159 45.3258 36.4416 45.2324C36.5736 45.1391 36.7214 45.0924 36.8849 45.0924H37.4036C37.5293 45.0924 37.6299 45.1453 37.7053 45.2511C37.7808 45.3569 37.7965 45.4689 37.7525 45.5871L35.5268 51.5053C35.4702 51.6546 35.3759 51.7729 35.2439 51.86C35.1118 51.9533 34.9672 52 34.8101 52H34.2914C34.1593 52 34.0587 51.9471 33.9896 51.8413C33.9204 51.7417 33.911 51.6328 33.9613 51.5146L34.5931 50.0211C34.5994 49.9962 34.6026 49.9713 34.6026 49.9464C34.6026 49.9215 34.5994 49.8966 34.5931 49.8717Z" fill="white"/>
<path d="M41.168 46.3992C41.0171 46.169 40.7844 46.0538 40.4701 46.0538C40.1557 46.0538 39.9199 46.169 39.7628 46.3992C39.6119 46.6295 39.5364 47.0029 39.5364 47.5194C39.5364 48.0359 39.6119 48.4093 39.7628 48.6395C39.9199 48.8698 40.1557 48.9849 40.4701 48.9849C40.7844 48.9849 41.0171 48.8698 41.168 48.6395C41.3251 48.4093 41.4037 48.0359 41.4037 47.5194C41.4037 47.0029 41.3251 46.6295 41.168 46.3992ZM42.2902 49.377C41.8564 49.8188 41.2497 50.0397 40.4701 50.0397C39.6904 50.0397 39.0837 49.8188 38.6499 49.377C38.2161 48.9351 37.9992 48.3159 37.9992 47.5194C37.9992 46.7228 38.2161 46.1036 38.6499 45.6618C39.0837 45.22 39.6904 44.999 40.4701 44.999C41.2497 44.999 41.8564 45.22 42.2902 45.6618C42.7241 46.1036 42.941 46.7228 42.941 47.5194C42.941 48.3159 42.7241 48.9351 42.2902 49.377Z" fill="white"/>
<path d="M45.383 50.0397C44.8297 50.0397 44.4273 49.8873 44.1758 49.5823C43.9306 49.2774 43.808 48.7547 43.808 48.0141V45.6245C43.808 45.4813 43.8615 45.3569 43.9683 45.2511C44.0752 45.1453 44.201 45.0924 44.3456 45.0924H44.7605C44.9051 45.0924 45.0309 45.1453 45.1378 45.2511C45.2447 45.3569 45.2981 45.4813 45.2981 45.6245V47.9114C45.2981 48.2724 45.3452 48.5213 45.4396 48.6582C45.5402 48.7889 45.7099 48.8542 45.9488 48.8542C46.1689 48.8542 46.3701 48.7671 46.5524 48.5929C46.7347 48.4124 46.8259 48.2195 46.8259 48.0141V45.6245C46.8259 45.4813 46.8793 45.3569 46.9862 45.2511C47.0931 45.1453 47.2189 45.0924 47.3635 45.0924H47.8161C47.9608 45.0924 48.0865 45.1453 48.1934 45.2511C48.3003 45.3569 48.3537 45.4813 48.3537 45.6245V49.4143C48.3537 49.5574 48.3003 49.6819 48.1934 49.7877C48.0865 49.8935 47.9608 49.9464 47.8161 49.9464H47.4295C47.2786 49.9464 47.1497 49.8966 47.0428 49.797C46.9422 49.6912 46.8888 49.5637 46.8825 49.4143V49.3396C46.8825 49.3334 46.8793 49.3303 46.8731 49.3303L46.8542 49.349C46.4455 49.8095 45.9551 50.0397 45.383 50.0397Z" fill="white"/>
<path d="M50.1303 49.9464C49.9856 49.9464 49.8599 49.8935 49.753 49.7877C49.6524 49.6819 49.6021 49.5574 49.6021 49.4143V45.6245C49.6021 45.4813 49.6524 45.3569 49.753 45.2511C49.8599 45.1453 49.9856 45.0924 50.1303 45.0924H50.5924C50.737 45.0924 50.8596 45.1453 50.9602 45.2511C51.0671 45.3569 51.1205 45.4813 51.1205 45.6245V46.0165C51.1205 46.0227 51.1236 46.0258 51.1299 46.0258C51.1425 46.0258 51.1488 46.0227 51.1488 46.0165C51.5386 45.5 52.0824 45.1982 52.7803 45.1111C52.9249 45.0924 53.0475 45.136 53.1481 45.2417C53.255 45.3475 53.3085 45.4751 53.3085 45.6245V45.6991C53.3085 45.8423 53.255 45.9667 53.1481 46.0725C53.0475 46.1783 52.9218 46.2374 52.7709 46.2499C52.2616 46.3059 51.8655 46.4801 51.5826 46.7726C51.306 47.0589 51.1677 47.4323 51.1677 47.8928V49.4143C51.1677 49.5574 51.1142 49.6819 51.0073 49.7877C50.9067 49.8935 50.7841 49.9464 50.6395 49.9464H50.1303Z" fill="white"/>
<path d="M59.2961 50.0397C58.4851 50.0397 57.8626 49.8281 57.4288 49.405C56.995 48.9818 56.7781 48.3533 56.7781 47.5194C56.7781 46.7042 56.9856 46.0819 57.4005 45.6525C57.8218 45.2169 58.4222 44.999 59.2018 44.999C59.4596 44.999 59.8022 45.027 60.2298 45.0831C60.387 45.1079 60.5127 45.1795 60.607 45.2978C60.7076 45.4098 60.7579 45.5436 60.7579 45.6991V45.7925C60.7579 45.9232 60.7045 46.029 60.5976 46.1099C60.4907 46.1908 60.3712 46.2188 60.2392 46.1939C59.9814 46.1503 59.7142 46.1285 59.4376 46.1285C59.0792 46.1285 58.812 46.2405 58.636 46.4646C58.4662 46.6824 58.3813 47.034 58.3813 47.5194C58.3813 48.0172 58.4725 48.3751 58.6548 48.5929C58.8434 48.8045 59.1358 48.9102 59.5319 48.9102C59.8274 48.9102 60.0915 48.8854 60.3241 48.8356C60.4561 48.8045 60.5724 48.8293 60.673 48.9102C60.7799 48.9911 60.8334 49.0969 60.8334 49.2276V49.321C60.8334 49.4765 60.7831 49.6166 60.6825 49.741C60.5819 49.8593 60.4561 49.9308 60.3052 49.9557C59.9594 50.0117 59.6231 50.0397 59.2961 50.0397Z" fill="white"/>
<path d="M64.8741 46.3992C64.7232 46.169 64.4906 46.0538 64.1762 46.0538C63.8619 46.0538 63.6261 46.169 63.4689 46.3992C63.318 46.6295 63.2426 47.0029 63.2426 47.5194C63.2426 48.0359 63.318 48.4093 63.4689 48.6395C63.6261 48.8698 63.8619 48.9849 64.1762 48.9849C64.4906 48.9849 64.7232 48.8698 64.8741 48.6395C65.0313 48.4093 65.1099 48.0359 65.1099 47.5194C65.1099 47.0029 65.0313 46.6295 64.8741 46.3992ZM65.9964 49.377C65.5626 49.8188 64.9559 50.0397 64.1762 50.0397C63.3966 50.0397 62.7899 49.8188 62.3561 49.377C61.9223 48.9351 61.7053 48.3159 61.7053 47.5194C61.7053 46.7228 61.9223 46.1036 62.3561 45.6618C62.7899 45.22 63.3966 44.999 64.1762 44.999C64.9559 44.999 65.5626 45.22 65.9964 45.6618C66.4302 46.1036 66.6471 46.7228 66.6471 47.5194C66.6471 48.3159 66.4302 48.9351 65.9964 49.377Z" fill="white"/>
<path d="M68.0989 49.9464C67.9543 49.9464 67.8286 49.8935 67.7217 49.7877C67.6148 49.6819 67.5613 49.5574 67.5613 49.4143V45.6245C67.5613 45.4813 67.6148 45.3569 67.7217 45.2511C67.8286 45.1453 67.9543 45.0924 68.0989 45.0924H68.4478C68.5987 45.0924 68.7245 45.1453 68.8251 45.2511C68.932 45.3506 68.9917 45.4751 69.0043 45.6245L69.0137 45.7085C69.0137 45.7147 69.0168 45.7178 69.0231 45.7178C69.0357 45.7178 69.042 45.7147 69.042 45.7085C69.4129 45.2355 69.8373 44.999 70.3152 44.999C70.6044 44.999 70.8339 45.0519 71.0036 45.1577C71.1734 45.2573 71.3306 45.4378 71.4752 45.6991C71.4752 45.7116 71.4815 45.7178 71.494 45.7178L71.5129 45.6991C71.9467 45.2324 72.3994 44.999 72.8709 44.999C73.4054 44.999 73.792 45.1422 74.0309 45.4284C74.2699 45.7085 74.3893 46.1876 74.3893 46.866V49.4143C74.3893 49.5574 74.3359 49.6819 74.229 49.7877C74.1221 49.8935 73.9964 49.9464 73.8518 49.9464H73.4368C73.2922 49.9464 73.1664 49.8935 73.0596 49.7877C72.9527 49.6819 72.8992 49.5574 72.8992 49.4143V46.9593C72.8992 46.6233 72.8615 46.4023 72.7861 46.2966C72.7106 46.1845 72.5692 46.1285 72.3617 46.1285C72.2171 46.1285 72.0756 46.1877 71.9373 46.3059C71.8052 46.4241 71.7392 46.5393 71.7392 46.6513V49.4143C71.7392 49.5574 71.6858 49.6819 71.5789 49.7877C71.472 49.8935 71.3463 49.9464 71.2017 49.9464H70.7867C70.6421 49.9464 70.5164 49.8935 70.4095 49.7877C70.3026 49.6819 70.2492 49.5574 70.2492 49.4143V46.9593C70.2492 46.6233 70.2114 46.4023 70.136 46.2966C70.0668 46.1845 69.9285 46.1285 69.721 46.1285C69.5764 46.1285 69.435 46.1877 69.2966 46.3059C69.1583 46.4241 69.0891 46.5393 69.0891 46.6513V49.4143C69.0891 49.5574 69.0357 49.6819 68.9288 49.7877C68.8219 49.8935 68.6962 49.9464 68.5516 49.9464H68.0989Z" fill="white"/>
<path d="M76.1207 49.9464C75.9761 49.9464 75.8503 49.8935 75.7435 49.7877C75.6366 49.6819 75.5831 49.5574 75.5831 49.4143V45.6245C75.5831 45.4813 75.6366 45.3569 75.7435 45.2511C75.8503 45.1453 75.9761 45.0924 76.1207 45.0924H76.4696C76.6205 45.0924 76.7463 45.1453 76.8469 45.2511C76.9538 45.3506 77.0135 45.4751 77.0261 45.6245L77.0355 45.7085C77.0355 45.7147 77.0386 45.7178 77.0449 45.7178C77.0575 45.7178 77.0638 45.7147 77.0638 45.7085C77.4347 45.2355 77.8591 44.999 78.337 44.999C78.6262 44.999 78.8557 45.0519 79.0254 45.1577C79.1952 45.2573 79.3523 45.4378 79.497 45.6991C79.497 45.7116 79.5032 45.7178 79.5158 45.7178L79.5347 45.6991C79.9685 45.2324 80.4212 44.999 80.8927 44.999C81.4271 44.999 81.8138 45.1422 82.0527 45.4284C82.2916 45.7085 82.4111 46.1876 82.4111 46.866V49.4143C82.4111 49.5574 82.3577 49.6819 82.2508 49.7877C82.1439 49.8935 82.0181 49.9464 81.8735 49.9464H81.4586C81.314 49.9464 81.1882 49.8935 81.0813 49.7877C80.9745 49.6819 80.921 49.5574 80.921 49.4143V46.9593C80.921 46.6233 80.8833 46.4023 80.8078 46.2966C80.7324 46.1845 80.5909 46.1285 80.3835 46.1285C80.2389 46.1285 80.0974 46.1877 79.9591 46.3059C79.827 46.4241 79.761 46.5393 79.761 46.6513V49.4143C79.761 49.5574 79.7076 49.6819 79.6007 49.7877C79.4938 49.8935 79.3681 49.9464 79.2235 49.9464H78.8085C78.6639 49.9464 78.5381 49.8935 78.4313 49.7877C78.3244 49.6819 78.2709 49.5574 78.2709 49.4143V46.9593C78.2709 46.6233 78.2332 46.4023 78.1578 46.2966C78.0886 46.1845 77.9503 46.1285 77.7428 46.1285C77.5982 46.1285 77.4567 46.1877 77.3184 46.3059C77.1801 46.4241 77.1109 46.5393 77.1109 46.6513V49.4143C77.1109 49.5574 77.0575 49.6819 76.9506 49.7877C76.8437 49.8935 76.718 49.9464 76.5734 49.9464H76.1207Z" fill="white"/>
<path d="M85.1327 50.0397C84.5794 50.0397 84.1771 49.8873 83.9256 49.5823C83.6804 49.2774 83.5578 48.7547 83.5578 48.0141V45.6245C83.5578 45.4813 83.6112 45.3569 83.7181 45.2511C83.825 45.1453 83.9507 45.0924 84.0953 45.0924H84.5103C84.6549 45.0924 84.7806 45.1453 84.8875 45.2511C84.9944 45.3569 85.0479 45.4813 85.0479 45.6245V47.9114C85.0479 48.2724 85.095 48.5213 85.1893 48.6582C85.2899 48.7889 85.4597 48.8542 85.6986 48.8542C85.9186 48.8542 86.1198 48.7671 86.3022 48.5929C86.4845 48.4124 86.5757 48.2195 86.5757 48.0141V45.6245C86.5757 45.4813 86.6291 45.3569 86.736 45.2511C86.8429 45.1453 86.9686 45.0924 87.1132 45.0924H87.5659C87.7105 45.0924 87.8362 45.1453 87.9431 45.2511C88.05 45.3569 88.1035 45.4813 88.1035 45.6245V49.4143C88.1035 49.5574 88.05 49.6819 87.9431 49.7877C87.8362 49.8935 87.7105 49.9464 87.5659 49.9464H87.1792C87.0283 49.9464 86.8994 49.8966 86.7926 49.797C86.692 49.6912 86.6385 49.5637 86.6322 49.4143V49.3396C86.6322 49.3334 86.6291 49.3303 86.6228 49.3303L86.6039 49.349C86.1953 49.8095 85.7049 50.0397 85.1327 50.0397Z" fill="white"/>
<path d="M89.88 49.9464C89.7354 49.9464 89.6097 49.8935 89.5028 49.7877C89.4022 49.6819 89.3519 49.5574 89.3519 49.4143V45.6245C89.3519 45.4813 89.4022 45.3569 89.5028 45.2511C89.6097 45.1453 89.7354 45.0924 89.88 45.0924H90.2667C90.4176 45.0924 90.5433 45.1453 90.6439 45.2511C90.7508 45.3506 90.8074 45.4751 90.8137 45.6245L90.8231 45.6991C90.8231 45.7054 90.8262 45.7085 90.8325 45.7085L90.8514 45.6898C91.2601 45.2293 91.7505 44.999 92.3226 44.999C92.8947 44.999 93.3066 45.1608 93.558 45.4844C93.8095 45.8018 93.9353 46.3463 93.9353 47.118V49.4143C93.9353 49.5574 93.8818 49.6819 93.775 49.7877C93.6744 49.8935 93.5518 49.9464 93.4072 49.9464H92.9922C92.8476 49.9464 92.7218 49.8935 92.615 49.7877C92.5081 49.6819 92.4546 49.5574 92.4546 49.4143V47.1647C92.4546 46.7913 92.4043 46.5361 92.3037 46.3992C92.2031 46.2561 92.0208 46.1845 91.7567 46.1845C91.5367 46.1845 91.3324 46.2748 91.1437 46.4552C90.9614 46.6295 90.8702 46.8193 90.8702 47.0247V49.4143C90.8702 49.5574 90.8168 49.6819 90.7099 49.7877C90.6093 49.8935 90.4867 49.9464 90.3421 49.9464H89.88Z" fill="white"/>
<path d="M95.909 49.9464C95.7644 49.9464 95.6386 49.8935 95.5318 49.7877C95.4249 49.6819 95.3714 49.5574 95.3714 49.4143V45.6245C95.3714 45.4813 95.4249 45.3569 95.5318 45.2511C95.6386 45.1453 95.7644 45.0924 95.909 45.0924H96.4371C96.5817 45.0924 96.7075 45.1453 96.8144 45.2511C96.9212 45.3569 96.9747 45.4813 96.9747 45.6245V49.4143C96.9747 49.5574 96.9212 49.6819 96.8144 49.7877C96.7075 49.8935 96.5817 49.9464 96.4371 49.9464H95.909ZM95.909 44.1589C95.7644 44.1589 95.6386 44.106 95.5318 44.0002C95.4249 43.8944 95.3714 43.77 95.3714 43.6269V43.4775C95.3714 43.3344 95.4249 43.2099 95.5318 43.1041C95.6386 42.9983 95.7644 42.9454 95.909 42.9454H96.4371C96.5817 42.9454 96.7075 42.9983 96.8144 43.1041C96.9212 43.2099 96.9747 43.3344 96.9747 43.4775V43.6269C96.9747 43.77 96.9212 43.8944 96.8144 44.0002C96.7075 44.106 96.5817 44.1589 96.4371 44.1589H95.909Z" fill="white"/>
<path d="M98.753 46.3339C98.6084 46.3339 98.4826 46.2841 98.3758 46.1845C98.2689 46.0787 98.2154 45.9543 98.2154 45.8112C98.2154 45.668 98.2689 45.5436 98.3758 45.4378C98.4826 45.332 98.6084 45.2791 98.753 45.2791H99.1302C99.1805 45.2791 99.2057 45.2511 99.2057 45.1951V44.0376C99.2057 43.8944 99.2591 43.77 99.366 43.6642C99.4729 43.5584 99.5986 43.5055 99.7432 43.5055H100.196C100.341 43.5055 100.466 43.5584 100.573 43.6642C100.68 43.77 100.733 43.8944 100.733 44.0376V45.1951C100.733 45.2511 100.762 45.2791 100.818 45.2791H101.743C101.887 45.2791 102.01 45.332 102.11 45.4378C102.217 45.5436 102.271 45.668 102.271 45.8112C102.271 45.9543 102.217 46.0787 102.11 46.1845C102.01 46.2841 101.887 46.3339 101.743 46.3339H100.818C100.762 46.3339 100.733 46.3619 100.733 46.4179V48.0141C100.733 48.4062 100.768 48.6551 100.837 48.7609C100.913 48.8667 101.076 48.9196 101.328 48.9196C101.46 48.9196 101.563 48.9134 101.639 48.9009C101.777 48.8822 101.9 48.9134 102.007 48.9943C102.114 49.0752 102.167 49.1809 102.167 49.3116V49.3863C102.167 49.5419 102.117 49.6788 102.016 49.797C101.915 49.9153 101.787 49.9837 101.629 50.0024C101.435 50.0273 101.208 50.0397 100.95 50.0397C100.309 50.0397 99.8564 49.9059 99.5923 49.6383C99.3346 49.3645 99.2057 48.876 99.2057 48.1728V46.4179C99.2057 46.3619 99.1805 46.3339 99.1302 46.3339H98.753Z" fill="white"/>
<path d="M104.29 49.9464C104.145 49.9464 104.02 49.8935 103.913 49.7877C103.806 49.6819 103.752 49.5574 103.752 49.4143V45.6245C103.752 45.4813 103.806 45.3569 103.913 45.2511C104.02 45.1453 104.145 45.0924 104.29 45.0924H104.818C104.963 45.0924 105.088 45.1453 105.195 45.2511C105.302 45.3569 105.356 45.4813 105.356 45.6245V49.4143C105.356 49.5574 105.302 49.6819 105.195 49.7877C105.088 49.8935 104.963 49.9464 104.818 49.9464H104.29ZM104.29 44.1589C104.145 44.1589 104.02 44.106 103.913 44.0002C103.806 43.8944 103.752 43.77 103.752 43.6269V43.4775C103.752 43.3344 103.806 43.2099 103.913 43.1041C104.02 42.9983 104.145 42.9454 104.29 42.9454H104.818C104.963 42.9454 105.088 42.9983 105.195 43.1041C105.302 43.2099 105.356 43.3344 105.356 43.4775V43.6269C105.356 43.77 105.302 43.8944 105.195 44.0002C105.088 44.106 104.963 44.1589 104.818 44.1589H104.29Z" fill="white"/>
<path d="M108.935 46.0165C108.652 46.0165 108.439 46.0912 108.294 46.2405C108.149 46.3837 108.058 46.6326 108.02 46.9873C108.02 47.0371 108.042 47.062 108.086 47.062H109.68C109.737 47.062 109.765 47.034 109.765 46.978C109.74 46.337 109.463 46.0165 108.935 46.0165ZM109.171 50.0397C108.316 50.0397 107.656 49.825 107.191 49.3956C106.732 48.9662 106.502 48.3408 106.502 47.5194C106.502 46.7042 106.706 46.0819 107.115 45.6525C107.53 45.2169 108.127 44.999 108.907 44.999C110.403 44.999 111.164 45.808 111.189 47.426C111.189 47.5754 111.13 47.703 111.01 47.8088C110.897 47.9083 110.765 47.9581 110.614 47.9581H108.096C108.033 47.9581 108.008 47.9861 108.02 48.0421C108.071 48.3844 108.203 48.6302 108.417 48.7796C108.637 48.9227 108.964 48.9943 109.397 48.9943C109.68 48.9943 109.985 48.9538 110.312 48.8729C110.444 48.8418 110.561 48.8667 110.661 48.9476C110.768 49.0285 110.821 49.1343 110.821 49.265V49.2836C110.821 49.4392 110.771 49.5823 110.671 49.713C110.576 49.8375 110.454 49.9122 110.303 49.9371C109.938 50.0055 109.561 50.0397 109.171 50.0397Z" fill="white"/>
<path d="M113.91 48.0795C113.231 47.955 112.743 47.7621 112.448 47.5007C112.159 47.2393 112.014 46.894 112.014 46.4646C112.014 46.0041 112.187 45.6462 112.533 45.3911C112.885 45.1297 113.413 44.999 114.117 44.999C114.532 44.999 114.956 45.0333 115.39 45.1017C115.541 45.1266 115.664 45.1982 115.758 45.3164C115.859 45.4347 115.909 45.5716 115.909 45.7271V45.7738C115.909 45.9045 115.856 46.0103 115.749 46.0912C115.648 46.1721 115.532 46.2001 115.4 46.1752C114.991 46.0943 114.614 46.0538 114.268 46.0538C114.01 46.0538 113.828 46.085 113.721 46.1472C113.62 46.2094 113.57 46.3028 113.57 46.4272C113.57 46.6637 113.759 46.8193 114.136 46.894C114.853 47.0122 115.353 47.1989 115.635 47.454C115.925 47.7092 116.069 48.0795 116.069 48.5649C116.069 49.0316 115.893 49.3956 115.541 49.657C115.189 49.9122 114.677 50.0397 114.004 50.0397C113.514 50.0397 113.048 49.9931 112.608 49.8997C112.457 49.8686 112.332 49.7908 112.231 49.6663C112.137 49.5357 112.089 49.3894 112.089 49.2276V49.1529C112.089 49.0223 112.143 48.9227 112.25 48.8542C112.357 48.7796 112.476 48.7578 112.608 48.7889C113.017 48.8947 113.419 48.9476 113.815 48.9476C114.281 48.9476 114.513 48.8138 114.513 48.5462C114.513 48.4217 114.469 48.3253 114.381 48.2568C114.299 48.1884 114.142 48.1292 113.91 48.0795Z" fill="white"/>
<path d="M5.39447 32.5218V0H24.929V2.427H7.8465V5.3394H24.929V7.76639H7.8465V12.3777H22.3135V14.8047H7.8465V17.7171H22.3135V20.1441H7.8465V32.5218H5.39447ZM0 32.5218V0H2.45203V32.5218H0Z" fill="white"/>
<path d="M29.849 32.5218L41.7823 0H44.3978L56.331 32.5218H53.7155L43.09 3.5596L41.5371 7.76639L50.6096 32.5218H47.9941L46.6046 28.6386H33.854L32.4645 32.5218H29.849ZM24.1276 32.5218L36.0608 0H38.6763L26.7431 32.5218H24.1276ZM36.7147 20.8722H43.7439L40.2293 11.326L36.7147 20.8722ZM34.7531 26.2116H45.7055L44.643 23.2992H35.8156L34.7531 26.2116Z" fill="white"/>
<path d="M60.4228 32.5218V0H62.8748V32.5218H60.4228ZM92.381 32.5218V0H94.833V32.5218H92.381ZM65.8173 32.5218V0H68.2693L77.587 11.5687L86.9865 0H89.4385V32.5218H86.9865V12.3777L81.1016 19.8205L68.2693 3.8832V8.5754L79.2217 22.0857L77.6688 24.0273L68.2693 12.4586V32.5218H65.8173ZM86.9865 3.8023L79.2217 13.5103L81.1016 15.8564L86.9865 8.49449V3.8023Z" fill="white"/>
<path d="M116.346 16.7463L104.74 0H107.764L114.548 9.78889L121.332 0H124.356L116.101 12.0541L117.818 14.562L127.953 0H130.977L119.371 16.7463H116.346ZM109.726 16.7463L98.1196 0H101.144L112.75 16.7463H109.726ZM116.019 32.5218V18.6879H118.471V32.5218H116.019ZM110.625 32.5218V18.6879H113.077V32.5218H110.625Z" fill="white"/>
<path d="M131.282 45.2544C130.568 45.8046 129.557 45.1401 129.792 44.2751L131.502 37.9906C131.606 37.6061 131.453 37.1983 131.12 36.975L125.675 33.3262C124.926 32.824 125.252 31.6668 126.155 31.621L132.722 31.2882C133.124 31.2678 133.469 30.9974 133.58 30.6148L135.404 24.3618C135.655 23.5012 136.867 23.4505 137.191 24.2872L139.54 30.3659C139.683 30.7378 140.05 30.9786 140.452 30.9654L147.023 30.7496C147.928 30.7199 148.351 31.8458 147.647 32.4087L142.532 36.4984C142.219 36.7487 142.101 37.1679 142.238 37.5423L144.476 43.6619C144.784 44.5042 143.833 45.2507 143.075 44.7619L137.565 41.2108C137.228 40.9935 136.788 41.0118 136.471 41.2565L131.282 45.2544Z" fill="url(#paint0_linear_1582_677)"/>
<defs>
<linearGradient id="paint0_linear_1582_677" x1="29.5608" y1="8.123" x2="107.872" y2="82.829" gradientUnits="userSpaceOnUse">
<stop stop-color="#0085FF"/>
<stop offset="0.845658" stop-color="#7000FF"/>
</linearGradient>
</defs>
</svg>
